<mxfile host="app.diagrams.net" modified="2024-03-03T17:34:50.239Z" agent="Mozilla/5.0 (Windows NT 10.0; Win64; x64) AppleWebKit/537.36 (KHTML, like Gecko) Chrome/121.0.0.0 Safari/537.36" etag="7e3jcCcSQvSvIqz-VeDZ" version="23.1.7" type="device">
  <diagram name="Страница — 1" id="Cy8QLNytjA-2ubOcpx3c">
    <mxGraphModel dx="2072" dy="1044" grid="1" gridSize="10" guides="1" tooltips="1" connect="1" arrows="1" fold="1" page="1" pageScale="1" pageWidth="3300" pageHeight="4681" math="0" shadow="0">
      <root>
        <mxCell id="0" />
        <mxCell id="1" parent="0" />
        <mxCell id="tvEzzkV83GTAkukXnAIm-575" value="Авторизация" style="rounded=1;whiteSpace=wrap;html=1;" parent="1" vertex="1">
          <mxGeometry x="460" y="270" width="90" height="40" as="geometry" />
        </mxCell>
        <mxCell id="tvEzzkV83GTAkukXnAIm-576" style="edgeStyle=orthogonalEdgeStyle;rounded=0;orthogonalLoop=1;jettySize=auto;html=1;dashed=1;endArrow=none;endFill=0;" parent="1" source="tvEzzkV83GTAkukXnAIm-577" target="tvEzzkV83GTAkukXnAIm-579" edge="1">
          <mxGeometry relative="1" as="geometry" />
        </mxCell>
        <mxCell id="tvEzzkV83GTAkukXnAIm-577" value="Магазин" style="shape=umlActor;verticalLabelPosition=bottom;verticalAlign=top;html=1;outlineConnect=0;" parent="1" vertex="1">
          <mxGeometry x="620" y="70" width="30" height="60" as="geometry" />
        </mxCell>
        <mxCell id="tvEzzkV83GTAkukXnAIm-578" style="edgeStyle=orthogonalEdgeStyle;rounded=0;orthogonalLoop=1;jettySize=auto;html=1;entryX=-0.007;entryY=0.1;entryDx=0;entryDy=0;exitX=1;exitY=0.1;exitDx=0;exitDy=0;exitPerimeter=0;entryPerimeter=0;" parent="1" source="tvEzzkV83GTAkukXnAIm-579" target="tvEzzkV83GTAkukXnAIm-582" edge="1">
          <mxGeometry relative="1" as="geometry" />
        </mxCell>
        <mxCell id="tvEzzkV83GTAkukXnAIm-579" value="" style="rounded=0;whiteSpace=wrap;html=1;" parent="1" vertex="1">
          <mxGeometry x="630" y="190" width="10" height="200" as="geometry" />
        </mxCell>
        <mxCell id="tvEzzkV83GTAkukXnAIm-580" style="edgeStyle=orthogonalEdgeStyle;rounded=0;orthogonalLoop=1;jettySize=auto;html=1;entryX=0.5;entryY=0;entryDx=0;entryDy=0;dashed=1;endArrow=none;endFill=0;" parent="1" source="tvEzzkV83GTAkukXnAIm-581" target="tvEzzkV83GTAkukXnAIm-582" edge="1">
          <mxGeometry relative="1" as="geometry" />
        </mxCell>
        <mxCell id="tvEzzkV83GTAkukXnAIm-581" value="Клиент" style="rounded=1;whiteSpace=wrap;html=1;" parent="1" vertex="1">
          <mxGeometry x="790" y="80" width="90" height="40" as="geometry" />
        </mxCell>
        <mxCell id="tvEzzkV83GTAkukXnAIm-582" value="" style="rounded=0;whiteSpace=wrap;html=1;" parent="1" vertex="1">
          <mxGeometry x="830" y="190" width="10" height="200" as="geometry" />
        </mxCell>
        <mxCell id="tvEzzkV83GTAkukXnAIm-583" value="Сервер" style="rounded=1;whiteSpace=wrap;html=1;" parent="1" vertex="1">
          <mxGeometry x="990" y="80" width="90" height="40" as="geometry" />
        </mxCell>
        <mxCell id="tvEzzkV83GTAkukXnAIm-584" value="" style="rounded=0;whiteSpace=wrap;html=1;" parent="1" vertex="1">
          <mxGeometry x="1030" y="190" width="10" height="200" as="geometry" />
        </mxCell>
        <mxCell id="tvEzzkV83GTAkukXnAIm-585" value="БД" style="rounded=1;whiteSpace=wrap;html=1;" parent="1" vertex="1">
          <mxGeometry x="1190" y="80" width="90" height="40" as="geometry" />
        </mxCell>
        <mxCell id="tvEzzkV83GTAkukXnAIm-586" style="edgeStyle=orthogonalEdgeStyle;rounded=0;orthogonalLoop=1;jettySize=auto;html=1;exitX=0;exitY=0.75;exitDx=0;exitDy=0;entryX=0.995;entryY=0.851;entryDx=0;entryDy=0;entryPerimeter=0;dashed=1;endArrow=open;endFill=0;" parent="1" target="tvEzzkV83GTAkukXnAIm-584" edge="1">
          <mxGeometry relative="1" as="geometry">
            <mxPoint x="1234.0000000000005" y="360.03999999999996" as="sourcePoint" />
            <mxPoint x="1044" y="360.84000000000015" as="targetPoint" />
            <Array as="points">
              <mxPoint x="1134" y="360" />
            </Array>
          </mxGeometry>
        </mxCell>
        <mxCell id="tvEzzkV83GTAkukXnAIm-587" value="" style="rounded=0;whiteSpace=wrap;html=1;" parent="1" vertex="1">
          <mxGeometry x="1230" y="260" width="10" height="120" as="geometry" />
        </mxCell>
        <mxCell id="tvEzzkV83GTAkukXnAIm-588" style="edgeStyle=orthogonalEdgeStyle;rounded=0;orthogonalLoop=1;jettySize=auto;html=1;entryX=0.5;entryY=0;entryDx=0;entryDy=0;dashed=1;endArrow=none;endFill=0;" parent="1" edge="1">
          <mxGeometry relative="1" as="geometry">
            <mxPoint x="1034.62" y="120" as="sourcePoint" />
            <mxPoint x="1034.62" y="190" as="targetPoint" />
          </mxGeometry>
        </mxCell>
        <mxCell id="tvEzzkV83GTAkukXnAIm-589" style="edgeStyle=orthogonalEdgeStyle;rounded=0;orthogonalLoop=1;jettySize=auto;html=1;dashed=1;endArrow=none;endFill=0;entryX=0.5;entryY=0;entryDx=0;entryDy=0;" parent="1" target="tvEzzkV83GTAkukXnAIm-587" edge="1">
          <mxGeometry relative="1" as="geometry">
            <mxPoint x="1234.62" y="120" as="sourcePoint" />
            <mxPoint x="1235" y="240" as="targetPoint" />
          </mxGeometry>
        </mxCell>
        <mxCell id="tvEzzkV83GTAkukXnAIm-590" style="edgeStyle=orthogonalEdgeStyle;rounded=0;orthogonalLoop=1;jettySize=auto;html=1;entryX=-0.007;entryY=0.1;entryDx=0;entryDy=0;exitX=1;exitY=0.1;exitDx=0;exitDy=0;exitPerimeter=0;entryPerimeter=0;" parent="1" edge="1">
          <mxGeometry relative="1" as="geometry">
            <mxPoint x="840" y="229.6300000000001" as="sourcePoint" />
            <mxPoint x="1030" y="229.6300000000001" as="targetPoint" />
          </mxGeometry>
        </mxCell>
        <mxCell id="tvEzzkV83GTAkukXnAIm-591" style="edgeStyle=orthogonalEdgeStyle;rounded=0;orthogonalLoop=1;jettySize=auto;html=1;entryX=-0.007;entryY=0.1;entryDx=0;entryDy=0;exitX=1;exitY=0.1;exitDx=0;exitDy=0;exitPerimeter=0;entryPerimeter=0;" parent="1" edge="1">
          <mxGeometry relative="1" as="geometry">
            <mxPoint x="1040" y="310" as="sourcePoint" />
            <mxPoint x="1230" y="310" as="targetPoint" />
          </mxGeometry>
        </mxCell>
        <mxCell id="tvEzzkV83GTAkukXnAIm-592" style="edgeStyle=orthogonalEdgeStyle;rounded=0;orthogonalLoop=1;jettySize=auto;html=1;exitX=1;exitY=0.1;exitDx=0;exitDy=0;exitPerimeter=0;" parent="1" edge="1">
          <mxGeometry relative="1" as="geometry">
            <mxPoint x="1040" y="229.6300000000001" as="sourcePoint" />
            <mxPoint x="1040" y="250" as="targetPoint" />
            <Array as="points">
              <mxPoint x="1130" y="230" />
              <mxPoint x="1130" y="250" />
              <mxPoint x="1040" y="250" />
            </Array>
          </mxGeometry>
        </mxCell>
        <mxCell id="tvEzzkV83GTAkukXnAIm-593" value="" style="rounded=0;whiteSpace=wrap;html=1;" parent="1" vertex="1">
          <mxGeometry x="1234" y="300" width="16" height="60" as="geometry" />
        </mxCell>
        <mxCell id="tvEzzkV83GTAkukXnAIm-594" style="edgeStyle=orthogonalEdgeStyle;rounded=0;orthogonalLoop=1;jettySize=auto;html=1;exitX=1;exitY=0.1;exitDx=0;exitDy=0;exitPerimeter=0;" parent="1" edge="1">
          <mxGeometry relative="1" as="geometry">
            <mxPoint x="1250" y="309.8499999999999" as="sourcePoint" />
            <mxPoint x="1250" y="330.22000000000025" as="targetPoint" />
            <Array as="points">
              <mxPoint x="1340" y="310.22000000000025" />
              <mxPoint x="1340" y="330.22000000000025" />
              <mxPoint x="1250" y="330.22000000000025" />
            </Array>
          </mxGeometry>
        </mxCell>
        <mxCell id="tvEzzkV83GTAkukXnAIm-595" style="edgeStyle=orthogonalEdgeStyle;rounded=0;orthogonalLoop=1;jettySize=auto;html=1;exitX=0;exitY=0.75;exitDx=0;exitDy=0;entryX=0.992;entryY=0.899;entryDx=0;entryDy=0;entryPerimeter=0;dashed=1;endArrow=open;endFill=0;" parent="1" target="tvEzzkV83GTAkukXnAIm-582" edge="1">
          <mxGeometry relative="1" as="geometry">
            <mxPoint x="1030" y="370" as="sourcePoint" />
            <mxPoint x="840" y="371" as="targetPoint" />
          </mxGeometry>
        </mxCell>
        <mxCell id="tvEzzkV83GTAkukXnAIm-596" style="edgeStyle=orthogonalEdgeStyle;rounded=0;orthogonalLoop=1;jettySize=auto;html=1;exitX=0;exitY=0.75;exitDx=0;exitDy=0;entryX=1.034;entryY=0.993;entryDx=0;entryDy=0;entryPerimeter=0;dashed=1;endArrow=open;endFill=0;" parent="1" target="tvEzzkV83GTAkukXnAIm-579" edge="1">
          <mxGeometry relative="1" as="geometry">
            <mxPoint x="831" y="388.52" as="sourcePoint" />
            <mxPoint x="641" y="389.52" as="targetPoint" />
          </mxGeometry>
        </mxCell>
        <mxCell id="tvEzzkV83GTAkukXnAIm-597" value="Заполнение формы" style="text;html=1;strokeColor=none;fillColor=none;align=center;verticalAlign=middle;whiteSpace=wrap;rounded=0;" parent="1" vertex="1">
          <mxGeometry x="670" y="180" width="130" height="30" as="geometry" />
        </mxCell>
        <mxCell id="tvEzzkV83GTAkukXnAIm-598" value="Проверка корректности введённых данных" style="text;html=1;strokeColor=none;fillColor=none;align=center;verticalAlign=middle;whiteSpace=wrap;rounded=0;" parent="1" vertex="1">
          <mxGeometry x="1070" y="190" width="140" height="30" as="geometry" />
        </mxCell>
        <mxCell id="tvEzzkV83GTAkukXnAIm-599" value="Поиск пользователя в базе" style="text;html=1;strokeColor=none;fillColor=none;align=center;verticalAlign=middle;whiteSpace=wrap;rounded=0;" parent="1" vertex="1">
          <mxGeometry x="1075" y="275" width="130" height="30" as="geometry" />
        </mxCell>
        <mxCell id="tvEzzkV83GTAkukXnAIm-600" value="Выборка из БД" style="text;html=1;strokeColor=none;fillColor=none;align=center;verticalAlign=middle;whiteSpace=wrap;rounded=0;" parent="1" vertex="1">
          <mxGeometry x="1270" y="280" width="130" height="30" as="geometry" />
        </mxCell>
        <mxCell id="tvEzzkV83GTAkukXnAIm-601" value="Найденное совпадение" style="text;html=1;strokeColor=none;fillColor=none;align=center;verticalAlign=middle;whiteSpace=wrap;rounded=0;" parent="1" vertex="1">
          <mxGeometry x="1070" y="330" width="130" height="30" as="geometry" />
        </mxCell>
        <mxCell id="tvEzzkV83GTAkukXnAIm-602" value="Результат" style="text;html=1;strokeColor=none;fillColor=none;align=center;verticalAlign=middle;whiteSpace=wrap;rounded=0;" parent="1" vertex="1">
          <mxGeometry x="870" y="340" width="130" height="30" as="geometry" />
        </mxCell>
        <mxCell id="tvEzzkV83GTAkukXnAIm-603" value="Отображение главной страницы" style="text;html=1;strokeColor=none;fillColor=none;align=center;verticalAlign=middle;whiteSpace=wrap;rounded=0;" parent="1" vertex="1">
          <mxGeometry x="670" y="350" width="130" height="30" as="geometry" />
        </mxCell>
        <mxCell id="tvEzzkV83GTAkukXnAIm-604" value="" style="endArrow=none;html=1;rounded=0;" parent="1" edge="1">
          <mxGeometry width="50" height="50" relative="1" as="geometry">
            <mxPoint x="430" y="430" as="sourcePoint" />
            <mxPoint x="1390" y="430" as="targetPoint" />
          </mxGeometry>
        </mxCell>
        <mxCell id="tvEzzkV83GTAkukXnAIm-605" value="Сделать заказ" style="rounded=1;whiteSpace=wrap;html=1;" parent="1" vertex="1">
          <mxGeometry x="460" y="610" width="90" height="40" as="geometry" />
        </mxCell>
        <mxCell id="tvEzzkV83GTAkukXnAIm-606" value="" style="rounded=0;whiteSpace=wrap;html=1;" parent="1" vertex="1">
          <mxGeometry x="630" y="470" width="10" height="360" as="geometry" />
        </mxCell>
        <mxCell id="tvEzzkV83GTAkukXnAIm-607" style="edgeStyle=orthogonalEdgeStyle;rounded=0;orthogonalLoop=1;jettySize=auto;html=1;entryX=0.5;entryY=0;entryDx=0;entryDy=0;dashed=1;endArrow=none;endFill=0;" parent="1" target="tvEzzkV83GTAkukXnAIm-606" edge="1">
          <mxGeometry relative="1" as="geometry">
            <mxPoint x="634.8299999999999" y="390" as="sourcePoint" />
            <mxPoint x="634.8299999999999" y="460" as="targetPoint" />
          </mxGeometry>
        </mxCell>
        <mxCell id="tvEzzkV83GTAkukXnAIm-608" value="" style="rounded=0;whiteSpace=wrap;html=1;" parent="1" vertex="1">
          <mxGeometry x="830" y="470" width="10" height="120" as="geometry" />
        </mxCell>
        <mxCell id="tvEzzkV83GTAkukXnAIm-609" style="edgeStyle=orthogonalEdgeStyle;rounded=0;orthogonalLoop=1;jettySize=auto;html=1;entryX=-0.007;entryY=0.1;entryDx=0;entryDy=0;exitX=1;exitY=0.1;exitDx=0;exitDy=0;exitPerimeter=0;entryPerimeter=0;" parent="1" edge="1">
          <mxGeometry relative="1" as="geometry">
            <mxPoint x="641" y="490" as="sourcePoint" />
            <mxPoint x="831" y="490" as="targetPoint" />
          </mxGeometry>
        </mxCell>
        <mxCell id="tvEzzkV83GTAkukXnAIm-610" value="Нажатие кнопки &quot;Сделать заказ&quot;" style="text;html=1;strokeColor=none;fillColor=none;align=center;verticalAlign=middle;whiteSpace=wrap;rounded=0;" parent="1" vertex="1">
          <mxGeometry x="671" y="460" width="130" height="30" as="geometry" />
        </mxCell>
        <mxCell id="tvEzzkV83GTAkukXnAIm-611" value="" style="rounded=0;whiteSpace=wrap;html=1;" parent="1" vertex="1">
          <mxGeometry x="1030" y="470" width="10" height="120" as="geometry" />
        </mxCell>
        <mxCell id="tvEzzkV83GTAkukXnAIm-612" style="edgeStyle=orthogonalEdgeStyle;rounded=0;orthogonalLoop=1;jettySize=auto;html=1;entryX=-0.007;entryY=0.1;entryDx=0;entryDy=0;exitX=1;exitY=0.1;exitDx=0;exitDy=0;exitPerimeter=0;entryPerimeter=0;" parent="1" edge="1">
          <mxGeometry relative="1" as="geometry">
            <mxPoint x="840" y="500" as="sourcePoint" />
            <mxPoint x="1030" y="500" as="targetPoint" />
          </mxGeometry>
        </mxCell>
        <mxCell id="tvEzzkV83GTAkukXnAIm-613" value="Запрос для открытие формы" style="text;html=1;strokeColor=none;fillColor=none;align=center;verticalAlign=middle;whiteSpace=wrap;rounded=0;" parent="1" vertex="1">
          <mxGeometry x="870" y="470" width="130" height="30" as="geometry" />
        </mxCell>
        <mxCell id="tvEzzkV83GTAkukXnAIm-614" style="edgeStyle=orthogonalEdgeStyle;rounded=0;orthogonalLoop=1;jettySize=auto;html=1;exitX=0;exitY=0.75;exitDx=0;exitDy=0;entryX=0.992;entryY=0.899;entryDx=0;entryDy=0;entryPerimeter=0;dashed=1;endArrow=open;endFill=0;" parent="1" edge="1">
          <mxGeometry relative="1" as="geometry">
            <mxPoint x="1030" y="560" as="sourcePoint" />
            <mxPoint x="840" y="560" as="targetPoint" />
          </mxGeometry>
        </mxCell>
        <mxCell id="tvEzzkV83GTAkukXnAIm-615" value="Открытие формы" style="text;html=1;strokeColor=none;fillColor=none;align=center;verticalAlign=middle;whiteSpace=wrap;rounded=0;" parent="1" vertex="1">
          <mxGeometry x="870" y="530" width="130" height="30" as="geometry" />
        </mxCell>
        <mxCell id="tvEzzkV83GTAkukXnAIm-616" value="Отображение формы" style="text;html=1;strokeColor=none;fillColor=none;align=center;verticalAlign=middle;whiteSpace=wrap;rounded=0;" parent="1" vertex="1">
          <mxGeometry x="671" y="530" width="130" height="30" as="geometry" />
        </mxCell>
        <mxCell id="tvEzzkV83GTAkukXnAIm-617" style="edgeStyle=orthogonalEdgeStyle;rounded=0;orthogonalLoop=1;jettySize=auto;html=1;exitX=0;exitY=0.75;exitDx=0;exitDy=0;entryX=0.992;entryY=0.899;entryDx=0;entryDy=0;entryPerimeter=0;dashed=1;endArrow=open;endFill=0;" parent="1" edge="1">
          <mxGeometry relative="1" as="geometry">
            <mxPoint x="831" y="560" as="sourcePoint" />
            <mxPoint x="641" y="560" as="targetPoint" />
          </mxGeometry>
        </mxCell>
        <mxCell id="tvEzzkV83GTAkukXnAIm-618" style="edgeStyle=orthogonalEdgeStyle;rounded=0;orthogonalLoop=1;jettySize=auto;html=1;entryX=-0.007;entryY=0.1;entryDx=0;entryDy=0;exitX=1;exitY=0.1;exitDx=0;exitDy=0;exitPerimeter=0;entryPerimeter=0;" parent="1" edge="1">
          <mxGeometry relative="1" as="geometry">
            <mxPoint x="641" y="620" as="sourcePoint" />
            <mxPoint x="831" y="620" as="targetPoint" />
          </mxGeometry>
        </mxCell>
        <mxCell id="tvEzzkV83GTAkukXnAIm-619" value="Нажатие кнопки &quot;Отправить заказ&quot;" style="text;html=1;strokeColor=none;fillColor=none;align=center;verticalAlign=middle;whiteSpace=wrap;rounded=0;" parent="1" vertex="1">
          <mxGeometry x="671" y="590" width="130" height="30" as="geometry" />
        </mxCell>
        <mxCell id="tvEzzkV83GTAkukXnAIm-620" style="edgeStyle=orthogonalEdgeStyle;rounded=0;orthogonalLoop=1;jettySize=auto;html=1;entryX=-0.007;entryY=0.1;entryDx=0;entryDy=0;exitX=1;exitY=0.1;exitDx=0;exitDy=0;exitPerimeter=0;entryPerimeter=0;" parent="1" edge="1">
          <mxGeometry relative="1" as="geometry">
            <mxPoint x="840" y="629.2200000000003" as="sourcePoint" />
            <mxPoint x="1030" y="629.2200000000003" as="targetPoint" />
          </mxGeometry>
        </mxCell>
        <mxCell id="tvEzzkV83GTAkukXnAIm-621" value="Передача данных" style="text;html=1;strokeColor=none;fillColor=none;align=center;verticalAlign=middle;whiteSpace=wrap;rounded=0;" parent="1" vertex="1">
          <mxGeometry x="870" y="599.2200000000003" width="130" height="30" as="geometry" />
        </mxCell>
        <mxCell id="tvEzzkV83GTAkukXnAIm-622" value="" style="rounded=0;whiteSpace=wrap;html=1;" parent="1" vertex="1">
          <mxGeometry x="1030" y="610" width="10" height="220" as="geometry" />
        </mxCell>
        <mxCell id="tvEzzkV83GTAkukXnAIm-623" value="" style="rounded=0;whiteSpace=wrap;html=1;" parent="1" vertex="1">
          <mxGeometry x="1230" y="660" width="10" height="140" as="geometry" />
        </mxCell>
        <mxCell id="tvEzzkV83GTAkukXnAIm-624" style="edgeStyle=orthogonalEdgeStyle;rounded=0;orthogonalLoop=1;jettySize=auto;html=1;entryX=-0.007;entryY=0.1;entryDx=0;entryDy=0;exitX=1;exitY=0.1;exitDx=0;exitDy=0;exitPerimeter=0;entryPerimeter=0;" parent="1" edge="1">
          <mxGeometry relative="1" as="geometry">
            <mxPoint x="1040" y="708.9499999999998" as="sourcePoint" />
            <mxPoint x="1230" y="708.9499999999998" as="targetPoint" />
          </mxGeometry>
        </mxCell>
        <mxCell id="tvEzzkV83GTAkukXnAIm-625" value="Запрос на редактирование" style="text;html=1;strokeColor=none;fillColor=none;align=center;verticalAlign=middle;whiteSpace=wrap;rounded=0;" parent="1" vertex="1">
          <mxGeometry x="1070" y="678.9499999999998" width="130" height="30" as="geometry" />
        </mxCell>
        <mxCell id="tvEzzkV83GTAkukXnAIm-626" value="Сохранение в БД" style="text;html=1;strokeColor=none;fillColor=none;align=center;verticalAlign=middle;whiteSpace=wrap;rounded=0;" parent="1" vertex="1">
          <mxGeometry x="1270" y="710" width="130" height="30" as="geometry" />
        </mxCell>
        <mxCell id="tvEzzkV83GTAkukXnAIm-627" style="edgeStyle=orthogonalEdgeStyle;rounded=0;orthogonalLoop=1;jettySize=auto;html=1;exitX=1;exitY=0.1;exitDx=0;exitDy=0;exitPerimeter=0;" parent="1" edge="1">
          <mxGeometry relative="1" as="geometry">
            <mxPoint x="1250" y="739.8499999999999" as="sourcePoint" />
            <mxPoint x="1250" y="760.2200000000003" as="targetPoint" />
            <Array as="points">
              <mxPoint x="1340" y="740.2200000000003" />
              <mxPoint x="1340" y="760.2200000000003" />
              <mxPoint x="1250" y="760.2200000000003" />
            </Array>
          </mxGeometry>
        </mxCell>
        <mxCell id="tvEzzkV83GTAkukXnAIm-628" value="" style="rounded=0;whiteSpace=wrap;html=1;" parent="1" vertex="1">
          <mxGeometry x="1234" y="725" width="16" height="60" as="geometry" />
        </mxCell>
        <mxCell id="tvEzzkV83GTAkukXnAIm-629" value="Результат" style="text;html=1;strokeColor=none;fillColor=none;align=center;verticalAlign=middle;whiteSpace=wrap;rounded=0;" parent="1" vertex="1">
          <mxGeometry x="1070" y="761" width="130" height="30" as="geometry" />
        </mxCell>
        <mxCell id="tvEzzkV83GTAkukXnAIm-630" style="edgeStyle=orthogonalEdgeStyle;rounded=0;orthogonalLoop=1;jettySize=auto;html=1;exitX=0;exitY=0.75;exitDx=0;exitDy=0;entryX=0.992;entryY=0.899;entryDx=0;entryDy=0;entryPerimeter=0;dashed=1;endArrow=open;endFill=0;" parent="1" edge="1">
          <mxGeometry relative="1" as="geometry">
            <mxPoint x="1230" y="791" as="sourcePoint" />
            <mxPoint x="1040" y="791" as="targetPoint" />
          </mxGeometry>
        </mxCell>
        <mxCell id="tvEzzkV83GTAkukXnAIm-631" value="Сообщение об успешном выполнении" style="text;html=1;strokeColor=none;fillColor=none;align=center;verticalAlign=middle;whiteSpace=wrap;rounded=0;" parent="1" vertex="1">
          <mxGeometry x="870" y="768.9499999999998" width="130" height="30" as="geometry" />
        </mxCell>
        <mxCell id="tvEzzkV83GTAkukXnAIm-632" style="edgeStyle=orthogonalEdgeStyle;rounded=0;orthogonalLoop=1;jettySize=auto;html=1;exitX=0;exitY=0.75;exitDx=0;exitDy=0;entryX=0.992;entryY=0.899;entryDx=0;entryDy=0;entryPerimeter=0;dashed=1;endArrow=open;endFill=0;" parent="1" edge="1">
          <mxGeometry relative="1" as="geometry">
            <mxPoint x="1030" y="798.9499999999998" as="sourcePoint" />
            <mxPoint x="840" y="798.9499999999998" as="targetPoint" />
          </mxGeometry>
        </mxCell>
        <mxCell id="tvEzzkV83GTAkukXnAIm-633" value="Отображение сообщения" style="text;html=1;strokeColor=none;fillColor=none;align=center;verticalAlign=middle;whiteSpace=wrap;rounded=0;" parent="1" vertex="1">
          <mxGeometry x="670" y="780" width="130" height="30" as="geometry" />
        </mxCell>
        <mxCell id="tvEzzkV83GTAkukXnAIm-634" style="edgeStyle=orthogonalEdgeStyle;rounded=0;orthogonalLoop=1;jettySize=auto;html=1;exitX=0;exitY=0.75;exitDx=0;exitDy=0;entryX=0.992;entryY=0.899;entryDx=0;entryDy=0;entryPerimeter=0;dashed=1;endArrow=open;endFill=0;" parent="1" edge="1">
          <mxGeometry relative="1" as="geometry">
            <mxPoint x="830" y="810" as="sourcePoint" />
            <mxPoint x="640" y="810" as="targetPoint" />
          </mxGeometry>
        </mxCell>
        <mxCell id="tvEzzkV83GTAkukXnAIm-635" value="Посмотреть текущие товары на складе" style="rounded=1;whiteSpace=wrap;html=1;" parent="1" vertex="1">
          <mxGeometry x="445" y="956" width="120" height="60" as="geometry" />
        </mxCell>
        <mxCell id="tvEzzkV83GTAkukXnAIm-636" value="" style="endArrow=none;html=1;rounded=0;" parent="1" edge="1">
          <mxGeometry width="50" height="50" relative="1" as="geometry">
            <mxPoint x="430" y="870" as="sourcePoint" />
            <mxPoint x="1390" y="870" as="targetPoint" />
          </mxGeometry>
        </mxCell>
        <mxCell id="tvEzzkV83GTAkukXnAIm-637" style="edgeStyle=orthogonalEdgeStyle;rounded=0;orthogonalLoop=1;jettySize=auto;html=1;entryX=0.5;entryY=0;entryDx=0;entryDy=0;dashed=1;endArrow=none;endFill=0;" parent="1" edge="1">
          <mxGeometry relative="1" as="geometry">
            <mxPoint x="834.6699999999998" y="390" as="sourcePoint" />
            <mxPoint x="834.8399999999999" y="470" as="targetPoint" />
          </mxGeometry>
        </mxCell>
        <mxCell id="tvEzzkV83GTAkukXnAIm-638" style="edgeStyle=orthogonalEdgeStyle;rounded=0;orthogonalLoop=1;jettySize=auto;html=1;entryX=0.5;entryY=0;entryDx=0;entryDy=0;dashed=1;endArrow=none;endFill=0;" parent="1" edge="1">
          <mxGeometry relative="1" as="geometry">
            <mxPoint x="1034.6799999999998" y="390" as="sourcePoint" />
            <mxPoint x="1034.85" y="470" as="targetPoint" />
          </mxGeometry>
        </mxCell>
        <mxCell id="tvEzzkV83GTAkukXnAIm-639" style="edgeStyle=orthogonalEdgeStyle;rounded=0;orthogonalLoop=1;jettySize=auto;html=1;entryX=0.5;entryY=0;entryDx=0;entryDy=0;dashed=1;endArrow=none;endFill=0;" parent="1" target="tvEzzkV83GTAkukXnAIm-623" edge="1">
          <mxGeometry relative="1" as="geometry">
            <mxPoint x="1234.6299999999999" y="380" as="sourcePoint" />
            <mxPoint x="1234.8" y="460" as="targetPoint" />
          </mxGeometry>
        </mxCell>
        <mxCell id="tvEzzkV83GTAkukXnAIm-640" style="edgeStyle=orthogonalEdgeStyle;rounded=0;orthogonalLoop=1;jettySize=auto;html=1;dashed=1;endArrow=none;endFill=0;exitX=0.5;exitY=1;exitDx=0;exitDy=0;entryX=0.5;entryY=0;entryDx=0;entryDy=0;" parent="1" source="tvEzzkV83GTAkukXnAIm-611" target="tvEzzkV83GTAkukXnAIm-622" edge="1">
          <mxGeometry relative="1" as="geometry">
            <mxPoint x="1099.9999999999998" y="420" as="sourcePoint" />
            <mxPoint x="1100" y="490" as="targetPoint" />
          </mxGeometry>
        </mxCell>
        <mxCell id="tvEzzkV83GTAkukXnAIm-641" style="edgeStyle=orthogonalEdgeStyle;rounded=0;orthogonalLoop=1;jettySize=auto;html=1;entryX=0.5;entryY=0;entryDx=0;entryDy=0;dashed=1;endArrow=none;endFill=0;exitX=0.5;exitY=1;exitDx=0;exitDy=0;" parent="1" source="tvEzzkV83GTAkukXnAIm-606" edge="1">
          <mxGeometry relative="1" as="geometry">
            <mxPoint x="680" y="850" as="sourcePoint" />
            <mxPoint x="635" y="910" as="targetPoint" />
          </mxGeometry>
        </mxCell>
        <mxCell id="tvEzzkV83GTAkukXnAIm-642" value="" style="rounded=0;whiteSpace=wrap;html=1;" parent="1" vertex="1">
          <mxGeometry x="1230" y="470" width="10" height="120" as="geometry" />
        </mxCell>
        <mxCell id="tvEzzkV83GTAkukXnAIm-643" value="" style="rounded=0;whiteSpace=wrap;html=1;" parent="1" vertex="1">
          <mxGeometry x="1234" y="510" width="16" height="60" as="geometry" />
        </mxCell>
        <mxCell id="tvEzzkV83GTAkukXnAIm-644" style="edgeStyle=orthogonalEdgeStyle;rounded=0;orthogonalLoop=1;jettySize=auto;html=1;exitX=1;exitY=0.1;exitDx=0;exitDy=0;exitPerimeter=0;" parent="1" edge="1">
          <mxGeometry relative="1" as="geometry">
            <mxPoint x="1250" y="519.8499999999999" as="sourcePoint" />
            <mxPoint x="1250" y="540.2200000000003" as="targetPoint" />
            <Array as="points">
              <mxPoint x="1340" y="520.2200000000003" />
              <mxPoint x="1340" y="540.2200000000003" />
              <mxPoint x="1250" y="540.2200000000003" />
            </Array>
          </mxGeometry>
        </mxCell>
        <mxCell id="tvEzzkV83GTAkukXnAIm-645" value="Выборка из БД" style="text;html=1;strokeColor=none;fillColor=none;align=center;verticalAlign=middle;whiteSpace=wrap;rounded=0;" parent="1" vertex="1">
          <mxGeometry x="1270" y="490" width="130" height="30" as="geometry" />
        </mxCell>
        <mxCell id="tvEzzkV83GTAkukXnAIm-646" style="edgeStyle=orthogonalEdgeStyle;rounded=0;orthogonalLoop=1;jettySize=auto;html=1;entryX=-0.007;entryY=0.1;entryDx=0;entryDy=0;exitX=1;exitY=0.1;exitDx=0;exitDy=0;exitPerimeter=0;entryPerimeter=0;" parent="1" edge="1">
          <mxGeometry relative="1" as="geometry">
            <mxPoint x="1040" y="509.0500000000002" as="sourcePoint" />
            <mxPoint x="1230" y="509.0500000000002" as="targetPoint" />
          </mxGeometry>
        </mxCell>
        <mxCell id="tvEzzkV83GTAkukXnAIm-647" value="Получение информации о товарах" style="text;html=1;strokeColor=none;fillColor=none;align=center;verticalAlign=middle;whiteSpace=wrap;rounded=0;" parent="1" vertex="1">
          <mxGeometry x="1063" y="480" width="140" height="30" as="geometry" />
        </mxCell>
        <mxCell id="tvEzzkV83GTAkukXnAIm-648" value="Результат" style="text;html=1;strokeColor=none;fillColor=none;align=center;verticalAlign=middle;whiteSpace=wrap;rounded=0;" parent="1" vertex="1">
          <mxGeometry x="1068" y="530" width="130" height="30" as="geometry" />
        </mxCell>
        <mxCell id="tvEzzkV83GTAkukXnAIm-649" style="edgeStyle=orthogonalEdgeStyle;rounded=0;orthogonalLoop=1;jettySize=auto;html=1;entryX=0.995;entryY=0.851;entryDx=0;entryDy=0;entryPerimeter=0;dashed=1;endArrow=open;endFill=0;exitX=0;exitY=0.75;exitDx=0;exitDy=0;" parent="1" source="tvEzzkV83GTAkukXnAIm-642" edge="1">
          <mxGeometry relative="1" as="geometry">
            <mxPoint x="1210" y="570" as="sourcePoint" />
            <mxPoint x="1038" y="560" as="targetPoint" />
            <Array as="points" />
          </mxGeometry>
        </mxCell>
        <mxCell id="tvEzzkV83GTAkukXnAIm-650" value="" style="rounded=0;whiteSpace=wrap;html=1;" parent="1" vertex="1">
          <mxGeometry x="831" y="610" width="10" height="220" as="geometry" />
        </mxCell>
        <mxCell id="tvEzzkV83GTAkukXnAIm-651" style="edgeStyle=orthogonalEdgeStyle;rounded=0;orthogonalLoop=1;jettySize=auto;html=1;entryX=0.5;entryY=0;entryDx=0;entryDy=0;dashed=1;endArrow=none;endFill=0;exitX=0.5;exitY=1;exitDx=0;exitDy=0;" parent="1" source="tvEzzkV83GTAkukXnAIm-623" target="tvEzzkV83GTAkukXnAIm-664" edge="1">
          <mxGeometry relative="1" as="geometry">
            <mxPoint x="1250" y="860" as="sourcePoint" />
            <mxPoint x="1235" y="1110" as="targetPoint" />
          </mxGeometry>
        </mxCell>
        <mxCell id="tvEzzkV83GTAkukXnAIm-652" style="edgeStyle=orthogonalEdgeStyle;rounded=0;orthogonalLoop=1;jettySize=auto;html=1;exitX=1;exitY=0.1;exitDx=0;exitDy=0;exitPerimeter=0;" parent="1" edge="1">
          <mxGeometry relative="1" as="geometry">
            <mxPoint x="1040" y="639.8499999999999" as="sourcePoint" />
            <mxPoint x="1040" y="660.2200000000003" as="targetPoint" />
            <Array as="points">
              <mxPoint x="1130" y="640.2200000000003" />
              <mxPoint x="1130" y="660.2200000000003" />
              <mxPoint x="1040" y="660.2200000000003" />
            </Array>
          </mxGeometry>
        </mxCell>
        <mxCell id="tvEzzkV83GTAkukXnAIm-653" value="Поверка корректности введённых данных" style="text;html=1;strokeColor=none;fillColor=none;align=center;verticalAlign=middle;whiteSpace=wrap;rounded=0;" parent="1" vertex="1">
          <mxGeometry x="1060" y="610" width="130" height="30" as="geometry" />
        </mxCell>
        <mxCell id="tvEzzkV83GTAkukXnAIm-654" value="" style="rounded=0;whiteSpace=wrap;html=1;" parent="1" vertex="1">
          <mxGeometry x="829" y="910" width="10" height="160" as="geometry" />
        </mxCell>
        <mxCell id="tvEzzkV83GTAkukXnAIm-655" style="edgeStyle=orthogonalEdgeStyle;rounded=0;orthogonalLoop=1;jettySize=auto;html=1;entryX=-0.007;entryY=0.1;entryDx=0;entryDy=0;exitX=1;exitY=0.1;exitDx=0;exitDy=0;exitPerimeter=0;entryPerimeter=0;" parent="1" edge="1">
          <mxGeometry relative="1" as="geometry">
            <mxPoint x="641" y="930" as="sourcePoint" />
            <mxPoint x="831" y="930" as="targetPoint" />
          </mxGeometry>
        </mxCell>
        <mxCell id="tvEzzkV83GTAkukXnAIm-656" value="Нажатие кнопки &quot;Посмотреть товары&quot;" style="text;html=1;strokeColor=none;fillColor=none;align=center;verticalAlign=middle;whiteSpace=wrap;rounded=0;" parent="1" vertex="1">
          <mxGeometry x="671" y="900" width="130" height="30" as="geometry" />
        </mxCell>
        <mxCell id="tvEzzkV83GTAkukXnAIm-657" value="" style="rounded=0;whiteSpace=wrap;html=1;" parent="1" vertex="1">
          <mxGeometry x="1029" y="910" width="10" height="160" as="geometry" />
        </mxCell>
        <mxCell id="tvEzzkV83GTAkukXnAIm-658" style="edgeStyle=orthogonalEdgeStyle;rounded=0;orthogonalLoop=1;jettySize=auto;html=1;entryX=-0.007;entryY=0.1;entryDx=0;entryDy=0;exitX=1;exitY=0.1;exitDx=0;exitDy=0;exitPerimeter=0;entryPerimeter=0;" parent="1" edge="1">
          <mxGeometry relative="1" as="geometry">
            <mxPoint x="839" y="950" as="sourcePoint" />
            <mxPoint x="1029" y="950" as="targetPoint" />
          </mxGeometry>
        </mxCell>
        <mxCell id="tvEzzkV83GTAkukXnAIm-659" value="Запрос для открытие формы" style="text;html=1;strokeColor=none;fillColor=none;align=center;verticalAlign=middle;whiteSpace=wrap;rounded=0;" parent="1" vertex="1">
          <mxGeometry x="869" y="920" width="130" height="30" as="geometry" />
        </mxCell>
        <mxCell id="tvEzzkV83GTAkukXnAIm-660" style="edgeStyle=orthogonalEdgeStyle;rounded=0;orthogonalLoop=1;jettySize=auto;html=1;exitX=0;exitY=0.75;exitDx=0;exitDy=0;entryX=0.992;entryY=0.899;entryDx=0;entryDy=0;entryPerimeter=0;dashed=1;endArrow=open;endFill=0;" parent="1" edge="1">
          <mxGeometry relative="1" as="geometry">
            <mxPoint x="1029" y="1044.9499999999998" as="sourcePoint" />
            <mxPoint x="839" y="1044.9499999999998" as="targetPoint" />
          </mxGeometry>
        </mxCell>
        <mxCell id="tvEzzkV83GTAkukXnAIm-661" value="Открытие формы" style="text;html=1;strokeColor=none;fillColor=none;align=center;verticalAlign=middle;whiteSpace=wrap;rounded=0;" parent="1" vertex="1">
          <mxGeometry x="869" y="1014.9499999999998" width="130" height="30" as="geometry" />
        </mxCell>
        <mxCell id="tvEzzkV83GTAkukXnAIm-662" value="Отображение формы" style="text;html=1;strokeColor=none;fillColor=none;align=center;verticalAlign=middle;whiteSpace=wrap;rounded=0;" parent="1" vertex="1">
          <mxGeometry x="670" y="1024.4099999999999" width="130" height="30" as="geometry" />
        </mxCell>
        <mxCell id="tvEzzkV83GTAkukXnAIm-663" style="edgeStyle=orthogonalEdgeStyle;rounded=0;orthogonalLoop=1;jettySize=auto;html=1;exitX=0;exitY=0.75;exitDx=0;exitDy=0;entryX=0.992;entryY=0.899;entryDx=0;entryDy=0;entryPerimeter=0;dashed=1;endArrow=open;endFill=0;" parent="1" edge="1">
          <mxGeometry relative="1" as="geometry">
            <mxPoint x="830" y="1054.4099999999999" as="sourcePoint" />
            <mxPoint x="640" y="1054.4099999999999" as="targetPoint" />
          </mxGeometry>
        </mxCell>
        <mxCell id="tvEzzkV83GTAkukXnAIm-664" value="" style="rounded=0;whiteSpace=wrap;html=1;" parent="1" vertex="1">
          <mxGeometry x="1229" y="934.4099999999999" width="10" height="120" as="geometry" />
        </mxCell>
        <mxCell id="tvEzzkV83GTAkukXnAIm-665" value="" style="rounded=0;whiteSpace=wrap;html=1;" parent="1" vertex="1">
          <mxGeometry x="1233" y="974.4099999999999" width="16" height="60" as="geometry" />
        </mxCell>
        <mxCell id="tvEzzkV83GTAkukXnAIm-666" style="edgeStyle=orthogonalEdgeStyle;rounded=0;orthogonalLoop=1;jettySize=auto;html=1;exitX=1;exitY=0.1;exitDx=0;exitDy=0;exitPerimeter=0;" parent="1" edge="1">
          <mxGeometry relative="1" as="geometry">
            <mxPoint x="1249" y="984.2600000000002" as="sourcePoint" />
            <mxPoint x="1249" y="1004.6300000000001" as="targetPoint" />
            <Array as="points">
              <mxPoint x="1339" y="984.6300000000001" />
              <mxPoint x="1339" y="1004.6300000000001" />
              <mxPoint x="1249" y="1004.6300000000001" />
            </Array>
          </mxGeometry>
        </mxCell>
        <mxCell id="tvEzzkV83GTAkukXnAIm-667" value="Выборка из БД" style="text;html=1;strokeColor=none;fillColor=none;align=center;verticalAlign=middle;whiteSpace=wrap;rounded=0;" parent="1" vertex="1">
          <mxGeometry x="1269" y="954.4099999999999" width="130" height="30" as="geometry" />
        </mxCell>
        <mxCell id="tvEzzkV83GTAkukXnAIm-668" style="edgeStyle=orthogonalEdgeStyle;rounded=0;orthogonalLoop=1;jettySize=auto;html=1;entryX=-0.007;entryY=0.1;entryDx=0;entryDy=0;exitX=1;exitY=0.1;exitDx=0;exitDy=0;exitPerimeter=0;entryPerimeter=0;" parent="1" edge="1">
          <mxGeometry relative="1" as="geometry">
            <mxPoint x="1039" y="963.46" as="sourcePoint" />
            <mxPoint x="1229" y="963.46" as="targetPoint" />
          </mxGeometry>
        </mxCell>
        <mxCell id="tvEzzkV83GTAkukXnAIm-669" value="Получение информации о товарах" style="text;html=1;strokeColor=none;fillColor=none;align=center;verticalAlign=middle;whiteSpace=wrap;rounded=0;" parent="1" vertex="1">
          <mxGeometry x="1062" y="934.4099999999999" width="140" height="30" as="geometry" />
        </mxCell>
        <mxCell id="tvEzzkV83GTAkukXnAIm-670" value="Результат" style="text;html=1;strokeColor=none;fillColor=none;align=center;verticalAlign=middle;whiteSpace=wrap;rounded=0;" parent="1" vertex="1">
          <mxGeometry x="1067" y="1003.3600000000001" width="130" height="30" as="geometry" />
        </mxCell>
        <mxCell id="tvEzzkV83GTAkukXnAIm-671" style="edgeStyle=orthogonalEdgeStyle;rounded=0;orthogonalLoop=1;jettySize=auto;html=1;entryX=0.995;entryY=0.851;entryDx=0;entryDy=0;entryPerimeter=0;dashed=1;endArrow=open;endFill=0;exitX=0;exitY=0.75;exitDx=0;exitDy=0;" parent="1" edge="1">
          <mxGeometry relative="1" as="geometry">
            <mxPoint x="1229" y="1033.3599999999997" as="sourcePoint" />
            <mxPoint x="1037" y="1033.3600000000001" as="targetPoint" />
            <Array as="points" />
          </mxGeometry>
        </mxCell>
        <mxCell id="tvEzzkV83GTAkukXnAIm-672" value="" style="rounded=0;whiteSpace=wrap;html=1;" parent="1" vertex="1">
          <mxGeometry x="630" y="910" width="10" height="160" as="geometry" />
        </mxCell>
        <mxCell id="tvEzzkV83GTAkukXnAIm-673" style="edgeStyle=orthogonalEdgeStyle;rounded=0;orthogonalLoop=1;jettySize=auto;html=1;entryX=0.5;entryY=0;entryDx=0;entryDy=0;dashed=1;endArrow=none;endFill=0;exitX=0.5;exitY=1;exitDx=0;exitDy=0;" parent="1" edge="1">
          <mxGeometry relative="1" as="geometry">
            <mxPoint x="833.74" y="830" as="sourcePoint" />
            <mxPoint x="833.74" y="910" as="targetPoint" />
          </mxGeometry>
        </mxCell>
        <mxCell id="tvEzzkV83GTAkukXnAIm-674" style="edgeStyle=orthogonalEdgeStyle;rounded=0;orthogonalLoop=1;jettySize=auto;html=1;entryX=0.5;entryY=0;entryDx=0;entryDy=0;dashed=1;endArrow=none;endFill=0;exitX=0.5;exitY=1;exitDx=0;exitDy=0;" parent="1" edge="1">
          <mxGeometry relative="1" as="geometry">
            <mxPoint x="1034.74" y="830" as="sourcePoint" />
            <mxPoint x="1034.74" y="910" as="targetPoint" />
          </mxGeometry>
        </mxCell>
      </root>
    </mxGraphModel>
  </diagram>
</mxfile>
